<svg viewBox="0 0 424 38" version="1.1"><g id="logo" transform="translate(-88.000000, -166.000000)" fill-rule="nonzero"><g id="logo-2" transform="translate(88.000000, 166.000000)" fill="white"><path d="M0.32,19.78 L0.32,19.68 C0.264577901,14.8013905 2.19193635,10.1092639 5.66065703,6.67824667 C9.12937771,3.24722948 13.8422875,1.37126467 18.72,1.48 C24.03,1.48 27.54,2.69 30.72,4.9 C31.7209014,5.6248785 32.3154191,6.78418793 32.32,8.02 C32.3226567,9.03220634 31.9224203,10.0038657 31.2076185,10.7205436 C30.4928168,11.4372215 29.5222098,11.8400035 28.51,11.84 C27.6551405,11.8501442 26.8224766,11.5678853 26.15,11.04 C23.9365397,9.39808736 21.2347683,8.5491605 18.48,8.63 C12.87,8.63 8.4,13.63 8.4,19.63 L8.4,19.73 C8.4,26.17 12.81,30.89 19.03,30.89 C21.6149768,30.9690989 24.1590308,30.2307284 26.3,28.78 L26.3,23.78 L21.09,23.78 C20.2025712,23.7906927 19.3478037,23.4456341 18.7165048,22.8218506 C18.0852058,22.1980671 17.7299356,21.3474932 17.73,20.46 C17.7273427,19.5671412 18.0801682,18.7099408 18.7105787,18.0776541 C19.3409892,17.4453674 20.1971373,17.089996 21.09,17.09 L29.91,17.09 C30.9371127,17.0846189 31.9235699,17.4909449 32.648918,18.2181722 C33.3742662,18.9453995 33.7780385,19.9329047 33.77,20.96 L33.77,29.51 C33.9026983,31.540608 32.845514,33.4638251 31.06,34.44 C27.3745301,36.7344455 23.1213279,37.9536045 18.78,37.96 C7.84,37.88 0.32,30.19 0.32,19.78 Z" id="Path"></path><path d="M41.17,33.41 L41.17,6 C41.1619615,4.97290468 41.5657338,3.98539947 42.291082,3.2581722 C43.0164301,2.53094492 44.0028873,2.12461893 45.03,2.12994723 L64.48,2.12994723 C66.3925217,2.13551161 67.9400079,3.68747038 67.94,5.6 C67.9373726,6.51317979 67.5707102,7.38761411 66.9212487,8.02956738 C66.2717872,8.67152065 65.3931486,9.02799081 64.48,9.02 L48.84,9.02 L48.84,16.16 L62.23,16.16 C64.1425217,16.1655116 65.6900079,17.7174704 65.69,19.63 C65.6873726,20.5431798 65.3207102,21.4176141 64.6712487,22.0595674 C64.0217872,22.7015206 63.1431486,23.0579908 62.23,23.05 L48.84,23.05 L48.84,30.44 L64.73,30.44 C66.6425217,30.4455116 68.19,31.9974704 68.19,33.91 C68.1873726,34.8231798 67.8207102,35.6976141 67.1712487,36.3395674 C66.5217872,36.9815206 65.6431486,37.3379908 64.73,37.3301315 L45,37.3301315 C43.9692904,37.3275396 42.9828406,36.9108255 42.2625291,36.1735876 C41.5422176,35.4363497 41.1485239,34.4404888 41.17,33.41 Z" id="Path"></path><path d="M82.92,9.23 L75.5,9.23 C73.5283434,9.23 71.93,7.63165656 71.93,5.66 C71.93,3.68834344 73.5283434,2.09 75.5,2.09 L98.06,2.09 C100.031657,2.09 101.63,3.68834344 101.63,5.66 C101.63,7.63165656 100.031657,9.23 98.06,9.23 L90.64,9.23 L90.64,33.71 C90.64,35.8418191 88.9118191,37.57 86.78,37.57 C84.6481809,37.57 82.92,35.8418191 82.92,33.71 L82.92,9.23 Z" id="Path"></path><path d="M105.83,34.66 L120.07,3.44 C120.43236,2.36801376 121.448695,1.65536463 122.58,1.68 L122.78,1.68 C123.899033,1.65794068 124.899576,2.37377613 125.24,3.44 L139.48,34.61 C139.626779,34.9241857 139.711659,35.263705 139.73,35.61 C139.73,36.6609709 138.880957,37.5144975 137.83,37.52 C136.922859,37.5016943 136.123856,36.9184219 135.83,36.06 L132.2,28 L112.95,28 L109.29,36.19 C109.013695,37.0081314 108.243505,37.5565393 107.38,37.5500579 C106.900873,37.5500579 106.441514,37.358993 106.103659,37.0192616 C105.765805,36.6795302 105.577338,36.21912 105.579709,35.74 C105.574033,35.3650015 105.659859,34.9942327 105.83,34.66 Z M130.64,24.35 L122.57,6.35 L114.5,24.35 L130.64,24.35 Z" id="Shape"></path><path d="M143.92,19.78 L143.92,19.68 C143.92,10.03 150.99,1.48 161.52,1.48 C165.835764,1.31001403 170.076853,2.64242291 173.52,5.25 C174.21903,5.75597232 174.514715,6.6532373 174.253446,7.47566652 C173.992177,8.29809574 173.232876,8.86021346 172.37,8.87 C171.909589,8.84576862 171.470112,8.66997763 171.12,8.37 C168.361564,6.1759934 164.912687,5.03463831 161.39,5.15 C153.62,5.15 148.06,11.74 148.06,19.58 L148.06,19.68 C148.06,28.08 153.42,34.31 161.95,34.31 C165.596958,34.2796151 169.131087,33.041791 172,30.79 L172,22 L162.58,22 C161.645892,21.9300348 160.923697,21.1517244 160.923697,20.215 C160.923697,19.2782756 161.645892,18.4999652 162.58,18.43 L173.9,18.43 C175.004569,18.43 175.9,19.3254305 175.9,20.43 L175.9,31.14 C175.897317,32.1228086 175.386689,33.0343733 174.55,33.55 C170.876307,36.305337 166.412124,37.8027497 161.82,37.8203336 C150.74,37.88 143.92,29.84 143.92,19.78 Z" id="Path"></path><path d="M184.769972,35.27 L184.769972,4.1 C184.769972,2.9954305 185.665431,2.1 186.77,2.1 L208.58,2.1 C209.579635,2.1 210.39,2.9103646 210.39,3.91 C210.39,4.9096354 209.579635,5.72 208.58,5.72 L188.78,5.72 L188.78,17.72 L206.33,17.72 C207.32512,17.7308175 208.129183,18.5348798 208.14,19.53 C208.142679,20.0108581 207.952843,20.4727968 207.61282,20.8128201 C207.272797,21.1528434 206.810858,21.3426789 206.33,21.34 L188.73,21.34 L188.73,33.66 L208.78,33.66 C209.779635,33.66 210.59,34.4703646 210.59,35.47 C210.59,36.4696354 209.779635,37.28 208.78,37.28 L186.73,37.28 C185.637181,37.258154 184.764316,36.3630222 184.769972,35.27 Z" id="Path"></path><path d="M218.35,3.9 C218.35,2.7954305 219.245431,1.9 220.35,1.9 L220.9,1.9 C221.72021,1.92260412 222.473098,2.3592787 222.9,3.06 L244.21,30.31 L244.21,3.8 C244.21,2.73409043 245.07409,1.87 246.14,1.87 C247.20591,1.87 248.07,2.73409043 248.07,3.8 L248.07,35.57 C248.09217,36.0610428 247.910297,36.5393953 247.567491,36.8916713 C247.224685,37.2439474 246.751465,37.4387847 246.26,37.43 L246,37.43 C245.166616,37.3644385 244.410133,36.9179286 243.95,36.22 L222.19,8.32 L222.19,35.57 C222.19,36.6359096 221.32591,37.5 220.26,37.5 C219.19409,37.5 218.33,36.6359096 218.33,35.57 L218.35,3.9 Z" id="Path"></path><path d="M267.22,5.76 L257,5.76 C255.991508,5.76561482 255.166427,4.95837415 255.15,3.95 C255.165915,2.9332891 255.98339,2.11139577 257,2.09 L281.36,2.09 C282.37661,2.11139577 283.194085,2.9332891 283.21,3.95 C283.193573,4.95837415 282.368492,5.76561482 281.36,5.76 L271.23,5.76 L271.23,35.52 C271.23,36.6245695 270.334569,37.52 269.23,37.52 C268.125431,37.52 267.23,36.6245695 267.23,35.52 L267.22,5.76 Z" id="Path"></path><path d="M287.23,30.09 C288.161273,30.0653799 289.062287,30.4217283 289.72479,31.0766817 C290.387294,31.7316352 290.753945,32.6285064 290.74,33.56 L290.74,34.06 C290.74,36.0123266 289.157327,37.595 287.205,37.595 C285.252673,37.595 283.67,36.0123266 283.67,34.06 L283.67,33.56 C283.658364,32.6204073 284.032713,31.7171835 284.705607,31.0613003 C285.378502,30.4054171 286.291013,30.0543138 287.23,30.09 L287.23,30.09 Z" id="Path"></path><path d="M295.3,24.16 L295.3,24.06 C295.246044,20.3781574 296.678646,16.8300299 299.273899,14.2178394 C301.869151,11.6056489 305.407884,10.149996 309.09,10.18 C312.489677,10.068106 315.804347,11.2552369 318.36,13.5 C318.975272,14.0313746 319.33828,14.7973212 319.36,15.61 C319.360122,16.3507435 319.062483,17.0604453 318.534018,17.5795073 C318.005553,18.0985693 317.290622,18.3834193 316.55,18.37 C315.901924,18.3637179 315.27223,18.1538196 314.75,17.77 C313.211317,16.330661 311.186906,15.5237529 309.08,15.51 C304.67,15.51 301.41,19.33 301.41,23.96 L301.41,24.06 C301.41,28.79 304.67,32.56 309.33,32.56 C311.528505,32.5386844 313.639785,31.6970254 315.25,30.2 C316.015181,29.519326 317.112396,29.3601815 318.039432,29.7954096 C318.966468,30.2306377 319.544912,31.1764766 319.51,32.2 C319.537951,32.9339852 319.224001,33.6394492 318.66,34.11 C316.113517,36.6505157 312.624466,38.0164264 309.03,37.88 C305.373908,37.9344165 301.851452,36.5067297 299.264976,33.9221378 C296.6785,31.3375459 295.248247,27.8161309 295.3,24.16 L295.3,24.16 Z" id="Path"></path><path d="M323.159909,24.16 L323.159909,24.06 C323.132386,16.2672625 329.427262,9.92761493 337.22,9.89991019 C345.012738,9.87238646 351.352385,16.1672625 351.38,23.96 L351.38,24.06 C351.372987,27.7885916 349.86398,31.3570986 347.19381,33.959527 C344.523639,36.5619554 340.917541,37.9787827 337.19,37.89 C333.495287,37.976266 329.922228,36.5672406 327.280872,33.9823642 C324.639517,31.3974879 323.153602,27.8557145 323.159909,24.16 L323.159909,24.16 Z M345.32,24.16 L345.32,24.06 C345.32,19.38 341.96,15.51 337.2,15.51 C332.44,15.51 329.2,19.33 329.2,23.96 L329.2,24.06 C329.2,28.69 332.56,32.56 337.27,32.56 C342.21,32.55 345.32,28.73 345.32,24.16 L345.32,24.16 Z" id="Shape"></path><path d="M359.5,30.09 C360.431273,30.0653799 361.332287,30.4217283 361.99479,31.0766817 C362.657294,31.7316352 363.023945,32.6285064 363.01,33.56 L363.01,34.06 C363.01,36.0123266 361.427327,37.595 359.475,37.595 C357.522673,37.595 355.94,36.0123266 355.94,34.06 L355.94,33.56 C355.928364,32.6204073 356.302713,31.7171835 356.975607,31.0613003 C357.648502,30.4054171 358.561013,30.0543138 359.5,30.09 L359.5,30.09 Z" id="Path"></path><path d="M393.54,34.51 C393.54,36.1999913 392.169991,37.57 390.48,37.57 C388.790009,37.57 387.42,36.1999913 387.42,34.51 L387.42,33.15 C385.694625,36.0726131 382.543807,37.8556632 379.15,37.8302733 C373.15,37.8302733 369.73,33.83 369.73,27.62 L369.73,13.5 C369.73,11.8238158 371.088816,10.465 372.765,10.465 C374.441184,10.465 375.8,11.8238158 375.8,13.5 L375.8,25.82 C375.8,29.94 377.86,32.26 381.47,32.26 C385.08,32.26 387.47,29.85 387.47,25.72 L387.47,13.5 C387.450735,12.6817756 387.766603,11.891202 388.344391,11.3115262 C388.922178,10.7318505 389.711717,10.4134042 390.53,10.43 C392.219329,10.4409611 393.584551,11.8106443 393.59,13.5 L393.54,34.51 Z" id="Path"></path><path d="M401.1,3.27 C401.091935,2.48955575 401.397716,1.73858413 401.948661,1.18575786 C402.499607,0.632931599 403.249533,0.324594166 404.03,0.329930098 C405.663703,0.329930098 406.997326,1.6366239 407.03,3.27 L407.03,22.38 L418.12,11.45 C418.74675,10.6837355 419.670938,10.2216414 420.66,10.18 C421.365507,10.1821914 422.039833,10.4709935 422.528226,10.9801281 C423.016618,11.4892627 423.277138,12.1750118 423.25,12.88 C423.197706,13.8665293 422.715168,14.7804283 421.93,15.38 L415.09,21.7 L422.91,31.94 C423.395419,32.4952207 423.671351,33.2027389 423.690089,33.94 C423.695973,34.6719148 423.40233,35.3744267 422.877272,35.8843759 C422.352213,36.3943251 421.641429,36.6673355 420.91,36.64 C419.873874,36.6894896 418.888807,36.1874477 418.32,35.32 L410.94,25.47 L407,29.14 L407,33.65 C406.748564,35.0852817 405.502139,36.132337 404.045,36.132337 C402.587861,36.132337 401.341436,35.0852817 401.09,33.65 L401.1,3.27 Z" id="Path"></path></g></g></svg>